<?xml version="1.0" encoding="utf-8"?>
<!-- Generator: Adobe Illustrator 20.1.0, SVG Export Plug-In . SVG Version: 6.00 Build 0)  -->
<svg version="1.1" id="Layer_1" xmlns="http://www.w3.org/2000/svg" xmlns:xlink="http://www.w3.org/1999/xlink" x="0px" y="0px"
	 viewBox="0 0 245 79.3" style="enable-background:new 0 0 245 79.3;" xml:space="preserve">
<style type="text/css">
	.st0{fill-rule:evenodd;clip-rule:evenodd;fill:#FFFFFF;}
	.st1{fill-rule:evenodd;clip-rule:evenodd;fill:#1976D2;}
	.st2{fill:#FFFFFF;}
</style>
<g>
	<path class="st0" d="M193.9,8.7h30.5c4.3,0,8.2,1.8,11,4.6l0,0c2.8,2.8,4.6,6.7,4.6,11v39.4c0,4.3-1.8,8.2-4.6,11l0,0l0,0
		c-2.8,2.8-6.7,4.6-11,4.6H185c-4.3,0-8.2-1.8-11-4.6v0c-2.8-2.8-4.6-6.7-4.6-11c0-16.7,0-34.3,0-51c0-14.2-0.2-15.1,12.6-9.4
		L193.9,8.7L193.9,8.7z"/>
	<path class="st1" d="M188.4,68.2H221c4.3,0,7.9-3.5,7.9-7.9V27.7c0-4.3-3.5-7.9-7.9-7.9h-32.6c-4.3,0-7.9,3.5-7.9,7.9v32.6
		C180.6,64.6,184.1,68.2,188.4,68.2L188.4,68.2z"/>
	<path class="st0" d="M193.2,57.9h11.5h1.6c4.8,2.6,12.8,10.4,12.8,3.3V60v0V32.7c0-1.6-1.3-2.9-2.9-2.9h-23c-1.6,0-2.9,1.3-2.9,2.9
		V55C190.3,56.6,191.6,57.9,193.2,57.9L193.2,57.9z"/>
	<path class="st2" d="M5,72.7V21.6c0-1.7,0.6-3.1,1.7-4.2c1.2-1.2,2.6-1.7,4.2-1.7h20.9c5.9,0,10.3,1.2,13.4,3.7
		c3.1,2.7,4.6,6.3,4.6,10.8c0,2.9-0.6,5.3-1.8,7.3c-1.2,1.9-2.9,3.4-5.2,4.5c2.9,1.2,5.1,2.9,6.7,5.2c1.4,2.1,2.2,4.9,2.2,8.3
		c0,5.5-1.8,9.8-5.3,12.9c-3.7,3-8.8,4.5-15.4,4.5H5L5,72.7z M16.3,37.7h13.4c2.9,0,5-0.5,6.3-1.5c1.3-1,2-2.5,2-4.7
		c0-2.1-0.7-3.7-2-4.7c-1.1-0.9-3.3-1.3-6.5-1.3H16.3V37.7L16.3,37.7z M16.3,62.4h13.9c3.1,0,5.5-0.6,7.1-1.8c1.5-1.1,2.3-3,2.3-5.6
		c0-2.7-0.8-4.6-2.3-5.8c-1.4-1.1-3.9-1.7-7.3-1.7H16.3V62.4L16.3,62.4z"/>
	<path class="st2" d="M64.9,44.2c0,6.4,1.4,11.3,4.1,14.6c2.8,3.4,6.7,5.1,11.8,5.1c5,0,8.9-1.7,11.8-5.1c2.9-3.6,4.3-8.4,4.3-14.6
		c0-6.2-1.4-11.1-4.3-14.8c-2.9-3.4-6.8-5.1-11.8-5.1c-5.1,0-9,1.7-11.8,5.1C66.3,32.9,64.9,37.8,64.9,44.2L64.9,44.2z M53.1,44.2
		c0-9.3,2.4-16.6,7.3-22.1c5.2-5.4,12-8.1,20.4-8.1c8.3,0,15.1,2.7,20.4,8.1c5,5.5,7.5,12.9,7.5,22.1c0,9.2-2.5,16.5-7.5,21.9
		c-5.1,5.3-11.9,8-20.4,8c-8.6,0-15.4-2.7-20.4-8C55.5,60.8,53.1,53.5,53.1,44.2L53.1,44.2z"/>
	<path class="st2" d="M128.1,15.6h9.3l20.7,57.1h-12.4l-3.8-11.8h-22.2L116,72.7h-12.4l18.9-53.2C123.5,16.9,125.3,15.6,128.1,15.6
		L128.1,15.6z M130.8,27.1l-8,24.2h15.9L130.8,27.1L130.8,27.1z"/>
</g>
</svg>
